if (_typeface_js && _typeface_js.loadFace) _typeface_js.loadFace({"glyphs":{"S":{"x_min":36.328125,"x_max":584.703125,"ha":642,"o":"m 584 237 q 507 53 584 122 q 297 -15 430 -15 q 159 5 219 -15 q 62 53 98 26 l 36 162 q 159 92 94 118 q 301 67 223 67 q 437 111 384 67 q 490 229 490 155 q 447 343 490 298 q 311 420 404 388 q 134 526 191 462 q 78 677 78 590 q 93 758 78 719 q 141 830 109 798 q 223 881 173 862 q 340 901 273 901 q 450 885 401 901 q 527 849 499 869 l 508 771 q 435 807 481 791 q 337 823 388 823 q 263 810 295 823 q 211 778 231 798 q 179 733 190 759 q 168 682 168 707 q 206 588 168 630 q 330 515 245 546 q 517 407 449 470 q 584 237 584 344 "},"/":{"x_min":38.890625,"x_max":823.671875,"ha":863,"o":"m 98 -21 l 38 27 l 765 923 l 823 876 l 98 -21 "},"K":{"x_min":96,"x_max":701.53125,"ha":720,"o":"m 586 0 l 189 424 l 189 0 l 96 0 l 96 886 l 189 886 l 189 459 l 575 886 l 684 886 l 286 447 l 701 0 l 586 0 "},"7":{"x_min":30.5625,"x_max":597.265625,"ha":613,"o":"m 218 0 l 123 0 l 472 810 l 30 810 l 30 886 l 597 886 l 218 0 "},"d":{"x_min":51,"x_max":643,"ha":735,"o":"m 554 498 q 480 545 526 526 q 381 565 434 565 q 286 546 330 565 q 210 494 242 527 q 158 415 177 460 q 140 313 140 369 q 158 212 140 258 q 210 133 177 166 q 286 82 242 100 q 381 64 330 64 q 480 82 435 64 q 554 132 524 100 l 554 498 m 564 0 l 562 52 q 479 2 530 19 q 367 -14 428 -14 q 252 8 309 -14 q 150 72 195 30 q 78 176 105 115 q 51 313 51 237 q 76 446 51 386 q 145 550 101 506 q 250 618 189 594 q 381 643 310 643 q 480 627 434 643 q 554 591 526 612 l 554 989 l 643 989 l 643 0 l 564 0 "},",":{"x_min":39,"x_max":195,"ha":260,"o":"m 195 62 q 185 14 195 43 q 159 -45 175 -13 q 122 -106 143 -76 q 77 -159 101 -136 l 39 -154 q 91 -72 70 -115 q 115 0 111 -30 q 82 24 100 4 q 64 62 64 44 q 70 85 64 72 q 88 110 77 98 q 109 130 98 122 q 129 138 121 138 q 149 130 137 138 q 170 111 160 122 q 188 86 181 100 q 195 62 195 73 "},"Y":{"x_min":16.484375,"x_max":786.296875,"ha":803,"o":"m 446 409 l 446 0 l 354 0 l 354 409 l 16 886 l 119 886 l 310 615 q 356 548 331 584 q 402 480 381 512 l 405 480 q 450 547 426 512 q 497 615 473 583 l 690 886 l 786 886 l 446 409 "},"E":{"x_min":96,"x_max":607.09375,"ha":638,"o":"m 96 0 l 96 886 l 558 886 l 558 805 l 189 805 l 189 486 l 491 486 l 491 405 l 189 405 l 189 81 l 607 81 l 607 0 l 96 0 "},"y":{"x_min":-11.109375,"x_max":609.765625,"ha":645,"o":"m 365 53 q 291 -93 329 -30 q 214 -203 254 -157 q 132 -278 175 -248 q 43 -323 90 -307 l -11 -268 q 147 -164 79 -240 q 277 55 216 -89 l 34 629 l 126 629 l 261 312 q 292 235 276 274 q 323 153 308 195 l 326 153 q 356 232 341 194 q 388 309 372 270 l 525 629 l 609 629 l 365 53 "},"\"":{"x_min":50,"x_max":333.359375,"ha":385,"o":"m 116 704 l 66 704 l 50 989 l 137 989 l 116 704 m 315 704 l 265 704 l 247 989 l 333 989 l 315 704 "},"‹":{"x_min":6.9375,"x_max":277.796875,"ha":314,"o":"m 227 150 q 134 277 191 215 q 6 385 76 340 q 134 492 76 430 q 227 620 191 554 l 277 569 q 213 469 252 517 q 129 385 173 421 q 213 300 173 348 q 277 200 252 252 l 227 150 "},"˙":{"x_min":192,"x_max":309,"ha":500,"o":"m 309 786 q 302 766 309 777 q 288 743 296 754 q 269 724 279 732 q 250 717 258 717 q 233 724 243 717 q 213 743 222 732 q 198 766 204 754 q 192 786 192 777 q 198 807 192 794 q 213 830 204 819 q 233 849 222 841 q 250 857 243 857 q 269 849 258 857 q 288 830 279 841 q 302 807 296 819 q 309 786 309 794 "},"„":{"x_min":34.984375,"x_max":406,"ha":463,"o":"m 191 62 q 181 14 191 43 q 154 -45 171 -13 q 117 -106 138 -76 q 73 -159 96 -136 l 34 -154 q 86 -72 65 -115 q 111 0 107 -30 q 78 24 96 4 q 60 62 60 44 q 66 85 60 72 q 83 110 73 98 q 105 130 93 122 q 125 138 117 138 q 143 130 132 138 q 165 111 154 122 q 183 86 175 100 q 191 62 191 73 m 406 62 q 396 14 406 43 q 369 -44 386 -13 q 332 -105 353 -75 q 289 -159 311 -136 l 250 -152 q 301 -71 280 -113 q 326 0 322 -29 q 310 9 319 2 q 293 25 301 15 q 280 44 286 34 q 275 62 275 54 q 281 85 275 72 q 299 110 288 98 q 320 130 309 122 q 340 138 332 138 q 360 130 348 138 q 381 111 371 122 q 399 86 392 100 q 406 62 406 73 "},"g":{"x_min":34.375,"x_max":590.53125,"ha":633,"o":"m 507 -120 q 477 -45 507 -76 q 395 1 448 -15 l 269 40 q 157 -1 201 38 q 114 -104 114 -41 q 127 -157 114 -131 q 166 -203 140 -183 q 228 -236 191 -223 q 312 -248 265 -248 q 394 -237 358 -248 q 455 -208 430 -226 q 493 -167 480 -190 q 507 -120 507 -144 m 459 434 q 448 486 459 462 q 417 529 437 510 q 370 558 397 548 q 312 569 344 569 q 204 529 247 569 q 162 434 162 490 q 204 337 162 376 q 312 299 247 299 q 368 309 341 299 q 416 338 395 319 q 447 381 436 357 q 459 434 459 405 m 590 -120 q 570 -200 590 -163 q 514 -263 550 -236 q 426 -305 478 -290 q 314 -320 375 -320 q 200 -304 251 -320 q 111 -258 148 -287 q 54 -189 74 -229 q 34 -104 34 -150 q 46 -33 34 -65 q 80 23 59 -1 q 128 64 101 48 q 183 87 155 80 l 108 155 q 115 188 108 172 q 135 217 123 204 q 164 241 148 230 q 196 255 180 251 q 114 325 148 279 q 80 434 80 372 q 98 518 80 480 q 146 584 115 556 q 218 627 176 612 q 311 643 261 643 q 355 639 336 643 q 390 631 375 636 q 468 622 421 622 q 521 628 496 622 q 564 645 546 634 l 582 572 q 543 559 571 565 q 496 553 515 553 q 528 503 515 533 q 541 435 541 472 q 525 355 541 393 q 480 287 509 316 q 407 241 450 258 q 311 225 364 225 q 230 210 258 225 q 203 176 203 195 q 220 155 203 172 q 259 131 237 138 l 422 76 q 546 3 503 48 q 590 -120 590 -41 "},"–":{"x_min":61.109375,"x_max":755.609375,"ha":817,"o":"m 61 347 l 61 422 l 755 422 l 755 347 l 61 347 "},"ƒ":{"x_min":-108.34375,"x_max":555.59375,"ha":569,"o":"m 537 819 q 472 826 518 826 q 352 784 402 826 q 284 653 302 742 l 280 629 l 470 629 l 455 571 l 270 571 l 155 -72 q 126 -165 147 -123 q 77 -238 105 -206 q 14 -290 48 -269 q -55 -319 -19 -311 l -108 -266 q 5 -199 -43 -251 q 69 -65 54 -148 l 181 571 l 81 571 l 91 629 l 193 629 l 195 645 q 292 840 219 780 q 477 901 365 901 q 555 893 525 901 l 537 819 "},"e":{"x_min":51,"x_max":620,"ha":671,"o":"m 532 404 q 520 460 532 432 q 488 512 509 489 q 434 551 466 536 q 359 567 402 567 q 286 551 320 567 q 222 511 251 536 q 175 453 194 486 q 150 386 156 421 l 531 386 q 532 404 532 391 m 620 408 q 620 386 620 397 q 617 365 620 375 l 564 313 l 143 313 q 156 221 140 266 q 206 141 173 176 q 287 85 240 107 q 393 64 334 64 q 497 78 450 64 q 590 126 544 93 l 565 29 q 485 -2 529 8 q 383 -14 441 -14 q 254 10 315 -14 q 149 77 194 34 q 77 181 103 120 q 51 313 51 241 q 77 451 51 390 q 146 554 103 512 q 245 620 190 597 q 355 643 300 643 q 470 622 421 643 q 553 569 519 602 q 603 493 586 536 q 620 408 620 451 "},"J":{"x_min":-82.859375,"x_max":231,"ha":350,"o":"m 231 179 q 210 38 231 99 q 153 -66 189 -22 q 72 -136 118 -109 q -21 -172 26 -162 l -82 -109 q 81 -16 24 -87 q 138 188 138 55 l 138 886 l 231 886 l 231 179 "},"|":{"x_min":111,"x_max":187,"ha":299,"o":"m 111 -320 l 111 989 l 187 989 l 187 -320 l 111 -320 "},"˘":{"x_min":101.390625,"x_max":397.25,"ha":500,"o":"m 397 769 q 380 758 393 767 q 347 740 368 750 q 302 723 327 730 q 250 717 277 717 q 195 723 220 717 q 151 740 170 730 q 118 758 131 750 q 101 769 105 767 l 151 822 q 187 806 158 818 q 250 795 216 795 q 312 806 284 795 q 347 822 340 818 l 397 769 "},"^":{"x_min":50,"x_max":475.03125,"ha":525,"o":"m 418 695 q 334 742 372 715 q 262 806 295 770 q 190 742 229 770 q 106 695 152 715 l 50 750 q 168 825 113 778 q 262 932 222 873 q 356 825 302 873 q 475 750 411 778 l 418 695 "},"q":{"x_min":51,"x_max":618,"ha":710,"o":"m 530 526 q 466 553 505 542 q 382 565 427 565 q 288 546 332 565 q 210 496 244 528 q 158 417 177 463 q 140 317 140 372 q 160 213 140 259 q 214 133 180 166 q 293 82 248 100 q 388 64 338 64 q 466 75 430 64 q 530 107 502 87 l 530 526 m 530 -320 l 530 22 q 467 -4 504 5 q 388 -14 431 -14 q 258 9 320 -14 q 151 76 196 33 q 78 181 105 120 q 51 317 51 242 q 77 452 51 392 q 148 554 103 512 q 254 620 194 597 q 383 643 315 643 q 474 632 427 643 q 555 603 522 621 l 591 638 l 618 638 l 618 -320 l 530 -320 "},"b":{"x_min":92,"x_max":659,"ha":710,"o":"m 570 316 q 549 417 570 372 q 495 496 529 463 q 416 546 461 528 q 322 565 371 565 q 241 553 278 565 q 180 521 203 541 l 180 93 q 235 73 203 82 q 311 64 267 64 q 418 82 370 64 q 499 134 465 101 q 551 214 533 168 q 570 316 570 261 m 659 316 q 633 181 659 241 q 561 76 607 120 q 451 9 515 33 q 311 -14 388 -14 q 188 2 244 -14 q 92 44 132 19 l 92 989 l 180 989 l 179 606 q 240 633 203 623 q 322 643 276 643 q 451 619 390 643 q 558 552 513 595 q 631 449 604 509 q 659 316 659 388 "},"D":{"x_min":96,"x_max":819.671875,"ha":879,"o":"m 723 443 q 692 599 723 531 q 606 712 661 666 q 476 781 551 757 q 314 805 401 805 l 189 805 l 189 81 l 314 81 q 476 104 401 81 q 606 173 551 128 q 692 286 661 219 q 723 443 723 354 m 819 443 q 780 254 819 337 q 674 115 741 172 q 517 29 607 59 q 327 0 427 0 l 96 0 l 96 886 l 327 886 q 517 856 427 886 q 674 770 607 826 q 780 631 741 713 q 819 443 819 548 "},"z":{"x_min":35.71875,"x_max":523.46875,"ha":564,"o":"m 35 0 l 35 16 l 253 374 q 309 465 280 417 q 366 552 338 512 l 365 554 l 62 554 l 62 629 l 500 629 l 500 612 l 280 254 q 225 165 253 209 q 169 76 196 120 l 170 75 l 523 75 l 523 0 l 35 0 "},"ˆ":{"x_min":69.453125,"x_max":430.59375,"ha":500,"o":"m 381 717 q 309 758 341 736 q 250 812 277 780 q 189 758 222 780 q 116 717 156 736 l 69 764 q 168 828 122 787 q 250 918 213 869 q 330 828 284 869 q 430 764 376 787 l 381 717 "},"w":{"x_min":44.453125,"x_max":943.125,"ha":988,"o":"m 708 -13 l 680 -13 l 554 330 q 524 416 538 373 q 495 505 509 459 l 493 505 q 463 415 477 458 q 434 333 450 373 l 308 -13 l 279 -13 l 44 629 l 129 629 l 243 314 q 270 234 258 274 q 294 157 283 194 l 297 157 q 321 235 308 194 q 348 313 334 277 l 462 629 l 529 629 l 643 314 q 670 238 657 278 q 694 157 683 198 l 697 157 q 722 237 709 198 q 750 313 736 276 l 862 629 l 943 629 l 708 -13 "},"$":{"x_min":54,"x_max":564,"ha":625,"o":"m 564 230 q 502 66 564 134 q 329 -13 441 -1 l 329 -134 l 270 -134 l 270 -15 q 147 6 199 -12 q 54 55 95 25 l 76 136 q 166 84 115 105 q 284 63 218 63 q 364 76 329 63 q 424 110 399 89 q 462 161 449 132 q 476 224 476 190 q 432 337 476 287 q 297 419 388 387 q 122 524 184 459 q 60 673 60 589 q 73 752 60 714 q 112 820 86 790 q 178 872 139 851 q 270 900 218 893 l 270 1023 l 329 1023 l 329 901 q 433 883 390 898 q 509 849 477 869 l 489 773 q 410 810 455 795 q 313 825 365 825 q 239 812 270 825 q 187 779 208 799 q 156 732 166 758 q 146 681 146 706 q 314 509 146 572 q 497 396 430 465 q 564 230 564 328 "},"\\":{"x_min":38.890625,"x_max":823.671875,"ha":863,"o":"m 762 -21 l 38 876 l 97 923 l 823 27 l 762 -21 "},"’":{"x_min":39,"x_max":195,"ha":260,"o":"m 195 918 q 185 870 195 898 q 159 811 175 843 q 122 750 143 780 q 77 697 101 720 l 39 702 q 91 784 70 741 q 115 857 111 826 q 99 866 108 859 q 82 881 90 872 q 69 900 75 890 q 64 918 64 909 q 70 942 64 929 q 88 967 77 955 q 109 987 98 979 q 129 995 121 995 q 149 987 137 995 q 170 967 160 979 q 188 942 181 955 q 195 918 195 929 "},"~":{"x_min":77.78125,"x_max":465.3125,"ha":542,"o":"m 450 373 q 361 327 409 344 q 261 307 312 309 l 238 383 q 156 363 200 380 q 77 322 113 345 l 93 394 q 181 439 134 420 q 281 461 229 458 l 304 383 q 386 404 344 386 q 465 444 429 422 l 450 373 "},"-":{"x_min":61,"x_max":408,"ha":469,"o":"m 61 347 l 61 422 l 408 422 l 408 347 l 61 347 "},"Q":{"x_min":58.34375,"x_max":1040.359375,"ha":1045,"o":"m 891 443 q 861 599 891 529 q 779 717 830 668 q 661 792 727 765 q 522 820 594 820 q 382 792 450 820 q 264 717 315 765 q 183 599 213 668 q 152 443 152 529 q 183 288 152 358 q 264 169 213 218 q 382 92 315 119 q 522 65 450 65 q 661 92 594 65 q 779 169 727 119 q 861 288 830 218 q 891 443 891 358 m 977 -162 q 912 -172 951 -172 q 845 -167 876 -172 q 783 -154 813 -163 q 720 -130 752 -144 q 650 -96 687 -116 q 553 -47 597 -68 q 477 -12 509 -26 q 316 31 393 -4 q 182 126 240 67 q 91 266 125 185 q 58 444 58 346 q 96 630 58 546 q 198 775 134 714 q 346 868 262 835 q 522 901 430 901 q 697 868 613 901 q 845 775 782 835 q 947 631 909 715 q 986 444 986 547 q 957 283 986 358 q 880 150 929 208 q 765 54 832 91 q 623 4 698 16 l 623 1 q 660 -10 638 -1 q 713 -34 682 -19 q 830 -82 780 -67 q 929 -97 880 -97 q 1040 -74 991 -97 l 977 -162 "},"M":{"x_min":81.953125,"x_max":1065.359375,"ha":1139,"o":"m 975 0 l 937 459 q 929 575 933 517 q 923 690 926 633 l 920 690 q 867 571 897 634 q 811 453 837 508 l 586 -10 l 555 -10 l 329 453 q 275 568 304 506 q 219 688 245 630 l 216 688 q 210 572 213 631 q 202 459 206 512 l 166 0 l 81 0 l 152 886 l 212 886 l 456 388 q 516 265 486 328 q 572 140 545 202 l 575 140 q 628 262 600 201 q 688 388 657 323 l 932 886 l 991 886 l 1065 0 l 975 0 "},"C":{"x_min":58.34375,"x_max":788.953125,"ha":831,"o":"m 770 759 q 670 802 732 784 q 537 820 608 820 q 393 794 462 820 q 270 719 323 768 q 184 600 216 670 q 152 442 152 530 q 184 286 152 355 q 269 167 216 216 q 391 92 322 118 q 537 67 461 67 q 787 126 691 67 l 765 32 q 667 -3 723 8 q 527 -15 611 -15 q 354 16 438 -15 q 204 107 269 47 q 98 251 138 166 q 58 443 58 336 q 98 635 58 551 q 204 779 138 720 q 355 869 270 838 q 527 901 440 901 q 679 884 613 901 q 788 841 744 867 l 770 759 "},"[":{"x_min":90,"x_max":364.125,"ha":410,"o":"m 90 -303 l 90 972 l 364 972 l 364 897 l 178 897 l 178 -228 l 364 -228 l 364 -303 l 90 -303 "},"L":{"x_min":96,"x_max":601.53125,"ha":617,"o":"m 96 0 l 96 886 l 189 886 l 189 81 l 601 81 l 601 0 l 96 0 "},"!":{"x_min":100.015625,"x_max":230.578125,"ha":328,"o":"m 230 62 q 223 39 230 52 q 206 14 216 26 q 186 -5 197 2 q 165 -14 175 -14 q 145 -5 156 -14 q 124 14 134 2 q 106 39 113 26 q 100 62 100 52 q 106 85 100 72 q 124 110 113 98 q 145 130 134 122 q 165 139 156 139 q 186 130 175 139 q 206 110 197 122 q 223 85 216 98 q 230 62 230 72 m 201 216 l 127 236 l 112 947 l 215 947 l 201 216 "}," ":{"x_min":0,"x_max":0,"ha":331},"{":{"x_min":20.59375,"x_max":417.734375,"ha":458,"o":"m 398 -304 q 280 -277 328 -304 q 203 -204 233 -251 q 160 -95 173 -158 q 147 39 147 -33 q 119 213 147 137 q 20 333 91 289 q 119 454 91 377 q 147 629 147 530 q 160 762 147 700 q 203 871 173 825 q 280 944 233 918 q 398 971 328 971 l 417 902 q 330 882 366 902 q 273 826 295 863 q 242 738 252 789 q 233 625 233 687 q 207 458 233 530 q 124 333 182 386 q 207 209 182 282 q 233 41 233 136 q 242 -71 233 -20 q 273 -159 252 -122 q 330 -215 295 -196 q 417 -235 366 -235 l 398 -304 "},"X":{"x_min":40.28125,"x_max":725.0625,"ha":765,"o":"m 618 0 l 458 255 q 420 317 438 284 q 381 383 401 349 l 379 383 q 340 316 361 349 q 302 255 319 283 l 140 0 l 40 0 l 326 451 l 54 886 l 161 886 l 312 644 q 348 584 329 616 q 383 523 368 552 l 386 523 q 420 584 401 552 q 456 644 440 616 l 611 886 l 711 886 l 438 456 l 725 0 l 618 0 "},"P":{"x_min":96,"x_max":602.921875,"ha":628,"o":"m 508 645 q 493 712 508 682 q 454 762 479 742 q 398 793 430 782 q 327 805 365 805 l 189 805 l 189 486 l 333 486 q 400 496 368 486 q 455 527 432 506 q 493 578 479 548 q 508 645 508 608 m 602 645 q 581 544 602 588 q 524 468 559 499 q 443 420 489 436 q 348 405 397 405 l 189 405 l 189 0 l 96 0 l 96 886 l 343 886 q 440 870 393 886 q 523 822 487 854 q 581 746 559 791 q 602 645 602 702 "},"%":{"x_min":55,"x_max":918,"ha":972,"o":"m 844 173 q 810 259 844 228 q 730 290 777 290 q 651 259 684 290 q 618 173 618 228 q 651 85 618 118 q 730 53 684 53 q 810 85 777 53 q 844 173 844 118 m 354 713 q 320 800 354 769 q 241 832 287 832 q 161 800 194 832 q 129 713 129 769 q 161 626 129 658 q 241 594 194 594 q 320 626 287 594 q 354 713 354 658 m 918 173 q 903 97 918 132 q 863 37 888 62 q 804 -1 838 12 q 730 -15 770 -15 q 657 -1 691 -15 q 598 37 623 12 q 558 97 573 62 q 544 173 544 132 q 558 248 544 214 q 598 308 573 283 q 657 347 623 333 q 730 361 691 361 q 804 347 770 361 q 863 308 838 333 q 903 248 888 283 q 918 173 918 214 m 144 -26 l 98 12 l 827 912 l 872 875 l 144 -26 m 429 713 q 414 637 429 671 q 374 578 399 602 q 315 539 349 553 q 241 526 281 526 q 166 539 200 526 q 107 578 132 553 q 68 637 82 602 q 55 713 55 671 q 68 789 55 755 q 107 848 82 824 q 166 887 132 873 q 241 901 200 901 q 315 887 281 901 q 374 848 349 873 q 414 789 399 824 q 429 713 429 755 "},"#":{"x_min":23.609375,"x_max":538.9375,"ha":572,"o":"m 227 535 l 186 351 l 334 351 l 376 535 l 227 535 m 443 535 l 401 351 l 497 351 l 497 293 l 387 293 l 319 0 l 252 0 l 320 293 l 172 293 l 104 0 l 37 0 l 105 293 l 23 293 l 23 351 l 119 351 l 161 535 l 65 535 l 65 593 l 175 593 l 243 886 l 309 886 l 241 593 l 391 593 l 458 886 l 525 886 l 458 593 l 538 593 l 538 535 l 443 535 "},"_":{"x_min":-1.390625,"x_max":697.28125,"ha":695,"o":"m -1 -321 l -1 -245 l 697 -245 l 697 -321 l -1 -321 "},"+":{"x_min":61.109375,"x_max":580.609375,"ha":642,"o":"m 362 347 l 362 140 l 279 140 l 279 347 l 61 347 l 61 422 l 279 422 l 279 629 l 362 629 l 362 422 l 580 422 l 580 347 l 362 347 "},"‚":{"x_min":39,"x_max":195,"ha":260,"o":"m 195 62 q 185 14 195 43 q 159 -45 175 -13 q 122 -106 143 -76 q 77 -159 101 -136 l 39 -154 q 91 -72 70 -115 q 115 0 111 -30 q 82 24 100 4 q 64 62 64 44 q 70 85 64 72 q 88 110 77 98 q 109 130 98 122 q 129 138 121 138 q 149 130 137 138 q 170 111 160 122 q 188 86 181 100 q 195 62 195 73 "},")":{"x_min":36.265625,"x_max":282,"ha":339,"o":"m 282 341 q 240 -15 282 141 q 123 -311 198 -173 l 36 -291 q 151 1 107 -161 q 196 340 196 163 q 186 515 196 431 q 156 677 176 598 q 107 832 136 757 q 41 986 79 908 l 136 962 q 195 832 168 898 q 241 690 222 765 q 271 529 261 615 q 282 341 282 444 "},"'":{"x_min":50,"x_max":137.515625,"ha":188,"o":"m 116 704 l 66 704 l 50 989 l 137 989 l 116 704 "},"}":{"x_min":41.65625,"x_max":439.390625,"ha":458,"o":"m 439 333 q 340 213 368 289 q 313 39 313 137 q 299 -95 313 -33 q 256 -204 286 -158 q 177 -277 226 -251 q 59 -304 129 -304 l 41 -235 q 127 -215 93 -235 q 184 -159 162 -196 q 215 -71 205 -122 q 225 41 225 -20 q 250 209 225 136 q 334 333 275 282 q 250 458 275 386 q 225 625 225 530 q 215 738 225 687 q 184 826 205 789 q 127 882 162 863 q 41 902 93 902 l 59 971 q 177 944 129 971 q 256 871 226 918 q 299 762 286 825 q 313 629 313 700 q 340 454 313 530 q 439 333 368 377 "},"‰":{"x_min":55,"x_max":1393,"ha":1449,"o":"m 844 173 q 810 259 844 228 q 730 290 777 290 q 651 259 684 290 q 618 173 618 228 q 651 85 618 118 q 730 53 684 53 q 810 85 777 53 q 844 173 844 118 m 354 713 q 320 800 354 769 q 241 832 287 832 q 161 800 194 832 q 129 713 129 769 q 161 626 129 658 q 241 594 194 594 q 320 626 287 594 q 354 713 354 658 m 1319 173 q 1285 259 1319 228 q 1205 290 1251 290 q 1126 259 1159 290 q 1093 173 1093 228 q 1126 85 1093 118 q 1205 53 1159 53 q 1285 85 1251 53 q 1319 173 1319 118 m 918 173 q 903 97 918 132 q 863 37 888 62 q 804 -1 838 12 q 730 -15 770 -15 q 657 -1 691 -15 q 598 37 623 12 q 558 97 573 62 q 544 173 544 132 q 558 248 544 214 q 598 308 573 283 q 657 347 623 333 q 730 361 691 361 q 804 347 770 361 q 863 308 838 333 q 903 248 888 283 q 918 173 918 214 m 144 -26 l 98 12 l 827 912 l 872 875 l 144 -26 m 429 713 q 414 637 429 671 q 374 578 399 602 q 315 539 349 553 q 241 526 281 526 q 166 539 200 526 q 107 578 132 553 q 68 637 82 602 q 55 713 55 671 q 68 789 55 755 q 107 848 82 824 q 166 887 132 873 q 241 901 200 901 q 315 887 281 901 q 374 848 349 873 q 414 789 399 824 q 429 713 429 755 m 1393 173 q 1378 97 1393 132 q 1338 37 1363 62 q 1279 -1 1313 12 q 1205 -15 1245 -15 q 1132 -1 1166 -15 q 1073 37 1098 12 q 1033 97 1048 62 q 1019 173 1019 132 q 1033 248 1019 214 q 1073 308 1048 283 q 1132 347 1098 333 q 1205 361 1166 361 q 1279 347 1245 361 q 1338 308 1313 333 q 1378 248 1363 283 q 1393 173 1393 214 "},"˛":{"x_min":129,"x_max":364.859375,"ha":500,"o":"m 349 -293 q 313 -307 334 -301 q 260 -313 292 -313 q 210 -305 234 -313 q 169 -282 187 -297 q 140 -245 151 -266 q 129 -194 129 -223 q 142 -131 129 -161 q 176 -77 155 -102 q 225 -32 198 -52 q 281 0 252 -12 l 363 0 q 299 -35 330 -15 q 245 -79 269 -55 q 207 -129 221 -102 q 194 -186 194 -156 q 216 -238 194 -220 q 275 -257 239 -257 q 324 -250 303 -257 q 364 -232 345 -244 l 349 -293 "},"a":{"x_min":51,"x_max":587.78125,"ha":620,"o":"m 421 308 l 266 294 q 170 255 205 288 q 136 170 136 222 q 170 92 136 123 q 255 61 205 61 q 313 72 283 61 q 366 105 343 84 q 405 156 390 126 q 421 223 421 186 l 421 308 m 530 -14 q 471 19 498 -7 q 436 81 443 45 q 361 11 411 37 q 252 -14 311 -14 q 171 0 208 -14 q 107 40 134 15 q 65 98 80 65 q 51 170 51 131 q 68 252 51 216 q 113 311 85 287 q 177 348 141 334 q 252 365 213 361 l 421 382 l 421 441 q 382 533 421 500 q 272 567 343 567 q 182 553 227 567 q 105 519 137 540 l 87 593 q 173 630 123 618 q 276 643 223 643 q 369 629 326 643 q 443 588 412 615 q 492 522 475 562 q 510 433 510 483 l 510 145 q 533 73 510 98 q 587 42 557 48 l 530 -14 "},"T":{"x_min":9.8125,"x_max":712.578125,"ha":722,"o":"m 407 805 l 407 0 l 314 0 l 314 805 l 9 805 l 9 886 l 712 886 l 712 805 l 407 805 "},"—":{"x_min":61.109375,"x_max":1102.859375,"ha":1164,"o":"m 61 347 l 61 422 l 1102 422 l 1102 347 l 61 347 "},"=":{"x_min":61.109375,"x_max":580.609375,"ha":642,"o":"m 61 228 l 61 303 l 580 303 l 580 228 l 61 228 m 61 467 l 61 542 l 580 542 l 580 467 l 61 467 "},"N":{"x_min":96,"x_max":867,"ha":963,"o":"m 841 -19 l 405 480 q 291 613 348 545 q 188 736 234 680 l 186 734 q 189 611 189 672 q 189 488 189 549 l 189 0 l 96 0 l 96 886 l 161 886 l 572 415 q 674 297 618 362 q 774 178 729 232 l 777 179 q 774 298 774 239 q 774 414 774 357 l 774 886 l 867 886 l 867 -19 l 841 -19 "},"˚":{"x_min":110,"x_max":390,"ha":500,"o":"m 333 843 q 309 902 333 879 q 250 926 285 926 q 190 902 214 926 q 167 843 167 879 q 190 782 167 806 q 250 759 214 759 q 309 782 285 759 q 333 843 333 806 m 390 843 q 378 788 390 814 q 348 743 367 762 q 304 714 329 725 q 250 703 279 703 q 195 714 220 703 q 151 743 170 725 q 121 788 132 762 q 110 843 110 814 q 121 897 110 872 q 151 941 132 922 q 195 970 170 959 q 250 982 220 982 q 304 970 279 982 q 348 941 329 959 q 378 897 367 922 q 390 843 390 872 "},"⁄":{"x_min":33.34375,"x_max":807.015625,"ha":839,"o":"m 79 -26 l 33 12 l 762 913 l 807 875 l 79 -26 "},"2":{"x_min":40.6875,"x_max":589.453125,"ha":636,"o":"m 40 0 l 40 20 q 349 378 243 223 q 456 638 456 532 q 402 777 456 732 q 268 823 349 823 q 170 807 212 823 q 87 763 128 791 l 67 842 q 156 883 107 866 q 268 901 205 901 q 380 883 329 901 q 468 832 432 866 q 524 750 504 799 q 545 635 545 701 q 513 500 545 573 q 432 353 482 427 q 319 207 382 278 q 196 76 257 135 l 589 76 l 589 0 l 40 0 "},"j":{"x_min":-22.5,"x_max":218.078125,"ha":319,"o":"m 204 -72 q 190 -162 204 -120 q 153 -236 176 -204 q 99 -289 130 -268 q 34 -319 69 -311 l -22 -263 q 79 -200 44 -248 q 115 -65 115 -151 l 115 629 l 204 629 l 204 -72 m 218 817 q 211 798 218 809 q 196 776 205 787 q 177 758 187 766 q 159 751 168 751 q 141 758 151 751 q 122 776 131 766 q 107 798 113 787 q 101 817 101 809 q 107 837 101 826 q 122 860 113 849 q 141 878 131 870 q 159 886 151 886 q 177 878 168 886 q 196 860 187 870 q 211 837 205 849 q 218 817 218 826 "},"Z":{"x_min":36.109375,"x_max":644.5,"ha":686,"o":"m 36 0 l 36 20 l 341 543 q 421 679 380 609 q 498 805 462 748 l 497 807 l 72 807 l 72 886 l 630 886 l 630 865 l 322 340 q 243 207 284 276 q 166 80 202 138 l 168 79 l 644 79 l 644 0 l 36 0 "},"u":{"x_min":82,"x_max":610,"ha":692,"o":"m 530 0 l 527 76 q 454 13 502 40 q 322 -14 405 -14 q 227 1 270 -14 q 150 44 183 16 q 100 113 118 72 q 82 205 82 154 l 82 629 l 170 629 l 170 213 q 214 104 170 146 q 343 62 258 62 q 473 104 424 62 q 522 213 522 146 l 522 629 l 610 629 l 610 0 l 530 0 "},"1":{"x_min":13.8125,"x_max":281,"ha":406,"o":"m 193 0 l 193 819 l 13 801 l 33 877 l 281 900 l 281 0 l 193 0 "},"›":{"x_min":34.71875,"x_max":306.96875,"ha":314,"o":"m 306 385 q 179 277 237 340 q 84 150 120 215 l 34 200 q 99 300 59 252 q 183 385 138 348 q 99 469 138 421 q 34 569 59 517 l 84 620 q 179 492 120 554 q 306 385 237 430 "},"˜":{"x_min":56.953125,"x_max":444.484375,"ha":500,"o":"m 429 784 q 341 738 388 755 q 240 718 293 720 l 218 794 q 136 774 179 791 q 56 733 93 756 l 72 805 q 161 850 113 831 q 261 872 209 869 l 283 794 q 366 815 323 797 q 444 855 408 833 l 429 784 "},"k":{"x_min":91,"x_max":591.53125,"ha":599,"o":"m 477 0 l 179 305 l 179 0 l 91 0 l 91 989 l 179 989 l 179 329 l 470 629 l 576 629 l 279 320 l 591 0 l 477 0 "},"ˇ":{"x_min":69.453125,"x_max":430.59375,"ha":500,"o":"m 430 861 q 330 796 376 837 q 250 707 284 755 q 168 796 213 755 q 69 861 122 837 l 116 907 q 189 866 156 887 q 250 812 222 844 q 309 866 277 844 q 381 907 341 887 l 430 861 "},"<":{"x_min":68.0625,"x_max":372.25,"ha":488,"o":"m 313 139 l 68 385 l 313 631 l 372 574 l 183 385 l 372 196 l 313 139 "},"t":{"x_min":17.4375,"x_max":461.015625,"ha":483,"o":"m 442 556 l 236 556 l 236 156 q 263 88 236 110 q 329 66 290 66 q 401 78 374 66 l 380 -3 q 322 -10 359 -10 q 198 32 248 -10 q 148 159 148 75 l 148 556 l 17 556 l 17 628 l 148 628 l 148 764 l 236 810 l 236 628 l 461 628 l 442 556 "},"W":{"x_min":37.5,"x_max":1241.765625,"ha":1279,"o":"m 929 -14 l 901 -14 l 723 502 q 682 625 702 563 q 640 761 662 687 l 637 761 q 595 625 615 687 q 554 502 575 563 l 377 -14 l 348 -14 l 37 886 l 131 886 l 293 420 q 331 308 312 366 q 366 188 351 249 l 369 188 q 404 306 386 248 q 443 420 423 365 l 602 886 l 684 886 l 844 420 q 916 188 884 306 l 919 188 q 955 304 936 245 q 994 420 975 363 l 1154 886 l 1241 886 l 929 -14 "},"v":{"x_min":37.5,"x_max":600.046875,"ha":638,"o":"m 334 -12 l 302 -12 l 37 629 l 126 629 l 261 306 q 292 227 276 267 q 320 147 308 187 l 323 147 q 352 226 337 187 q 384 306 368 266 l 516 629 l 600 629 l 334 -12 "},">":{"x_min":116.671875,"x_max":419.484375,"ha":488,"o":"m 173 139 l 116 196 l 304 385 l 116 574 l 173 631 l 419 385 l 173 139 "},"s":{"x_min":43.390625,"x_max":459,"ha":517,"o":"m 459 163 q 401 35 459 84 q 243 -14 343 -14 q 139 0 185 -14 q 67 37 94 15 l 43 138 q 134 81 82 102 q 244 61 186 61 q 334 87 297 61 q 371 159 371 113 q 339 232 371 204 q 254 280 307 261 q 118 356 166 312 q 71 476 71 401 q 85 544 71 513 q 125 596 100 574 q 187 630 151 618 q 265 643 223 643 q 359 629 316 643 q 419 602 401 615 l 403 530 q 347 555 383 542 q 264 569 311 569 q 186 544 216 569 q 157 478 157 519 q 185 412 157 437 q 266 367 214 387 q 408 288 357 335 q 459 163 459 241 "},"B":{"x_min":96,"x_max":643,"ha":701,"o":"m 548 264 q 531 340 548 306 q 486 398 514 374 q 419 434 457 422 q 340 447 381 447 l 189 447 l 189 81 l 345 81 q 422 93 385 81 q 487 128 459 105 q 531 186 514 151 q 548 264 548 221 m 457 666 q 411 769 457 734 q 300 805 366 805 l 189 805 l 189 528 l 304 528 q 411 564 366 528 q 457 666 457 600 m 643 263 q 619 152 643 201 q 556 69 595 102 q 468 18 518 36 q 363 0 418 0 l 96 0 l 96 886 l 313 886 q 402 870 359 886 q 478 827 445 855 q 531 758 512 799 q 551 666 551 718 q 524 567 551 613 q 454 501 498 520 q 525 471 491 493 q 586 418 559 450 q 627 347 612 387 q 643 263 643 308 "},"…":{"x_min":62,"x_max":650,"ha":713,"o":"m 193 62 q 186 39 193 52 q 169 14 179 26 q 147 -5 159 2 q 127 -14 135 -14 q 107 -5 119 -14 q 85 14 95 2 q 68 39 75 26 q 62 62 62 52 q 68 85 62 72 q 85 110 75 98 q 107 130 95 122 q 127 139 119 139 q 147 130 135 139 q 169 110 159 122 q 186 85 179 98 q 193 62 193 72 m 421 62 q 414 39 421 52 q 397 14 407 26 q 375 -5 387 2 q 355 -14 363 -14 q 335 -5 347 -14 q 313 14 323 2 q 296 39 303 26 q 290 62 290 52 q 296 85 290 72 q 313 110 303 98 q 335 130 323 122 q 355 139 347 139 q 375 130 363 139 q 397 110 387 122 q 414 85 407 98 q 421 62 421 72 m 650 62 q 643 39 650 52 q 625 14 636 26 q 604 -5 615 2 q 583 -14 593 -14 q 563 -5 574 -14 q 541 14 551 2 q 524 39 531 26 q 518 62 518 52 q 524 85 518 72 q 541 110 531 98 q 563 130 551 122 q 583 139 574 139 q 604 130 593 139 q 625 110 615 122 q 643 85 636 98 q 650 62 650 72 "},"?":{"x_min":36.75,"x_max":476,"ha":532,"o":"m 306 62 q 299 39 306 52 q 282 14 292 26 q 262 -5 273 2 q 241 -14 251 -14 q 221 -5 232 -14 q 199 14 209 2 q 182 39 189 26 q 176 62 176 52 q 182 85 176 72 q 199 110 189 98 q 221 130 209 122 q 241 139 232 139 q 262 130 251 139 q 282 110 273 122 q 299 85 292 98 q 306 62 306 72 m 476 724 q 437 596 476 652 q 345 482 399 539 q 286 396 305 439 q 268 303 268 353 q 269 255 268 278 q 275 214 270 232 l 200 232 q 193 271 195 251 q 190 313 190 291 q 213 437 190 380 q 280 538 237 494 q 354 628 324 582 q 384 732 384 673 q 372 789 384 762 q 340 837 361 816 q 290 870 320 858 q 224 883 260 883 q 129 863 170 883 q 56 812 88 844 l 36 892 q 114 941 67 922 q 222 961 161 961 q 323 944 277 961 q 404 898 370 928 q 457 823 438 867 q 476 724 476 780 "},"H":{"x_min":96,"x_max":790,"ha":886,"o":"m 697 0 l 697 405 l 189 405 l 189 0 l 96 0 l 96 886 l 189 886 l 189 486 l 697 486 l 697 886 l 790 886 l 790 0 l 697 0 "},"c":{"x_min":51,"x_max":585.875,"ha":635,"o":"m 567 516 q 486 552 531 540 q 392 565 441 565 q 293 546 340 565 q 212 495 246 528 q 159 415 178 462 q 140 313 140 369 q 160 212 140 258 q 214 133 180 166 q 294 82 248 100 q 395 64 341 64 q 487 74 444 64 q 580 109 531 84 l 558 20 q 481 -5 526 2 q 388 -14 437 -14 q 260 8 321 -14 q 153 74 199 31 q 78 178 106 117 q 51 313 51 238 q 78 449 51 388 q 151 553 105 511 q 259 619 198 595 q 388 643 320 643 q 499 629 449 643 q 585 594 549 615 l 567 516 "},"&":{"x_min":57,"x_max":829.515625,"ha":817,"o":"m 294 417 q 182 329 219 374 q 146 221 146 283 q 160 160 146 189 q 200 110 175 132 q 258 75 225 88 q 329 63 292 63 q 448 88 392 63 q 552 158 504 114 l 294 417 m 471 692 q 459 743 471 719 q 430 785 448 767 q 385 814 411 803 q 330 826 359 826 q 280 814 304 826 q 238 785 255 803 q 210 742 220 766 q 200 692 200 719 q 227 611 200 652 q 314 513 255 570 q 471 692 471 602 m 710 0 l 610 100 q 485 16 555 47 q 325 -15 414 -15 q 216 4 265 -15 q 131 55 166 23 q 76 129 95 87 q 57 216 57 170 q 101 363 57 302 q 237 473 145 423 q 146 586 176 533 q 115 692 115 640 q 134 779 115 741 q 183 844 152 817 q 253 886 214 871 q 330 901 291 901 q 412 886 372 901 q 485 844 453 871 q 536 779 517 817 q 556 692 556 741 q 504 560 556 617 q 371 456 453 504 l 607 220 q 707 424 673 311 l 767 365 q 726 260 751 312 q 665 162 700 208 l 829 0 l 710 0 "},"˝":{"x_min":38.890625,"x_max":462.53125,"ha":500,"o":"m 273 898 q 236 843 254 868 q 198 797 218 818 q 157 757 179 776 q 111 717 136 737 l 38 732 q 142 832 93 773 q 223 950 191 891 l 273 898 m 462 898 q 425 843 443 868 q 386 797 406 818 q 345 757 366 776 q 298 717 323 737 l 227 732 q 331 832 281 773 q 412 950 380 891 l 462 898 "},"I":{"x_min":119,"x_max":212,"ha":332,"o":"m 119 0 l 119 886 l 212 886 l 212 0 l 119 0 "},"•":{"x_min":75,"x_max":444,"ha":519,"o":"m 444 384 q 430 311 444 344 q 391 253 416 277 q 333 216 366 229 q 259 203 299 203 q 186 216 220 203 q 127 253 152 229 q 88 311 102 277 q 75 384 75 344 q 88 458 75 425 q 127 515 102 491 q 186 554 152 540 q 259 568 220 568 q 333 554 299 568 q 391 515 366 540 q 430 458 416 491 q 444 384 444 425 "},"ˉ":{"x_min":131,"x_max":370,"ha":500,"o":"m 131 732 l 131 808 l 370 808 l 370 732 l 131 732 "},"G":{"x_min":58.546875,"x_max":857,"ha":938,"o":"m 857 80 q 716 9 797 34 q 533 -15 634 -15 q 355 16 440 -15 q 203 107 269 48 q 98 252 137 166 q 58 443 58 337 q 98 635 58 551 q 204 779 139 720 q 354 869 269 838 q 528 901 439 901 q 686 882 615 901 q 807 833 757 864 l 787 751 q 674 801 739 782 q 537 820 610 820 q 392 794 462 820 q 269 719 322 768 q 185 600 216 670 q 153 441 153 530 q 184 284 153 354 q 269 166 215 215 q 392 92 322 118 q 539 67 462 67 q 673 85 614 67 q 767 126 733 103 l 767 346 l 533 346 l 533 422 l 857 422 l 857 80 "},"(":{"x_min":57,"x_max":302.734375,"ha":339,"o":"m 302 965 q 187 672 231 834 q 143 333 143 511 q 181 -3 143 150 q 295 -311 220 -156 l 202 -288 q 143 -158 170 -225 q 97 -16 116 -91 q 67 144 77 58 q 57 331 57 230 q 98 689 57 531 q 213 984 140 847 l 302 965 "},"`":{"x_min":104.171875,"x_max":384.75,"ha":500,"o":"m 334 717 q 213 757 272 732 q 104 828 155 783 l 122 910 q 243 821 173 857 q 384 765 313 785 l 334 717 "},"U":{"x_min":96,"x_max":787,"ha":883,"o":"m 787 306 q 762 172 787 231 q 691 70 737 112 q 582 6 645 28 q 441 -15 519 -15 q 301 6 365 -15 q 191 70 237 28 q 120 172 145 112 q 96 306 96 231 l 96 886 l 189 886 l 189 315 q 254 133 189 198 q 443 67 320 67 q 630 133 563 67 q 697 315 697 198 l 697 886 l 787 886 l 787 306 "},"◊":{"x_min":109.734375,"x_max":697.28125,"ha":821,"o":"m 402 591 l 195 384 l 402 177 l 611 384 l 402 591 m 402 90 l 109 384 l 402 679 l 697 384 l 402 90 "},"F":{"x_min":96,"x_max":566.8125,"ha":589,"o":"m 189 805 l 189 486 l 511 486 l 511 405 l 189 405 l 189 0 l 96 0 l 96 886 l 566 886 l 566 805 l 189 805 "},"r":{"x_min":96,"x_max":420.140625,"ha":442,"o":"m 420 563 l 406 563 q 321 547 361 563 q 250 499 281 531 q 202 420 220 468 q 184 308 184 372 l 184 0 l 96 0 l 96 629 l 180 629 l 184 508 q 261 602 203 567 q 402 638 318 638 l 420 563 "},":":{"x_min":62,"x_max":193,"ha":260,"o":"m 193 62 q 186 39 193 52 q 169 14 179 26 q 147 -5 159 2 q 127 -14 135 -14 q 107 -5 119 -14 q 85 14 95 2 q 68 39 75 26 q 62 62 62 52 q 68 85 62 72 q 85 110 75 98 q 107 130 95 122 q 127 139 119 139 q 147 130 135 139 q 169 110 159 122 q 186 85 179 98 q 193 62 193 72 m 193 566 q 186 543 193 556 q 169 518 179 530 q 147 498 159 506 q 127 490 135 490 q 107 498 119 490 q 85 518 95 506 q 68 543 75 530 q 62 566 62 556 q 68 589 62 576 q 85 614 75 602 q 107 634 95 626 q 127 643 119 643 q 147 634 135 643 q 169 614 159 626 q 186 589 179 602 q 193 566 193 576 "},"x":{"x_min":47.21875,"x_max":555.59375,"ha":603,"o":"m 456 0 l 351 166 q 302 251 325 208 l 300 251 q 274 208 288 230 q 247 166 259 186 l 141 0 l 47 0 l 251 320 l 58 629 l 156 629 l 255 470 q 301 391 280 431 l 304 391 q 351 470 325 427 l 450 629 l 545 629 l 352 323 l 555 0 l 456 0 "},"*":{"x_min":35.03125,"x_max":547.625,"ha":567,"o":"m 335 673 l 462 511 l 407 448 l 282 633 l 171 462 l 96 497 l 230 672 l 35 725 l 44 805 l 248 732 l 242 933 l 324 952 l 314 732 l 504 804 l 547 730 l 335 673 "},"†":{"x_min":15.28125,"x_max":452.8125,"ha":469,"o":"m 276 566 l 261 -313 l 206 -313 l 193 566 l 15 548 l 15 637 l 191 619 l 188 773 l 280 773 l 277 619 l 452 637 l 452 548 l 276 566 "},"V":{"x_min":22.21875,"x_max":757,"ha":779,"o":"m 402 -14 l 376 -14 l 22 886 l 120 886 l 306 411 q 350 295 327 356 q 393 173 373 233 l 395 173 q 436 292 415 231 q 480 411 458 354 l 668 886 l 757 886 l 402 -14 "},"h":{"x_min":92,"x_max":620,"ha":703,"o":"m 532 0 l 532 415 q 487 524 532 482 q 358 567 443 567 q 228 524 277 567 q 180 415 180 482 l 180 0 l 92 0 l 92 989 l 180 989 l 179 558 q 251 617 203 591 q 379 643 299 643 q 474 627 431 643 q 551 584 518 612 q 601 515 583 556 q 620 423 620 474 l 620 0 l 532 0 "},"0":{"x_min":58,"x_max":695,"ha":753,"o":"m 606 444 q 587 613 606 542 q 536 731 568 684 q 462 799 504 777 q 376 822 421 822 q 288 799 330 822 q 215 731 247 777 q 165 613 184 684 q 147 444 147 542 q 165 273 147 345 q 215 154 184 201 q 288 86 247 108 q 376 64 330 64 q 464 86 422 64 q 537 154 505 108 q 587 272 568 201 q 606 444 606 344 m 695 444 q 668 243 695 329 q 597 99 642 157 q 496 13 553 41 q 376 -15 439 -15 q 254 13 312 -15 q 153 98 197 41 q 83 241 109 155 q 58 444 58 327 q 83 643 58 558 q 153 786 109 728 q 254 872 197 844 q 376 901 312 901 q 495 872 437 901 q 597 786 553 844 q 668 643 642 728 q 695 444 695 558 "},".":{"x_min":62,"x_max":193,"ha":260,"o":"m 193 62 q 186 39 193 52 q 169 14 179 26 q 147 -5 159 2 q 127 -14 135 -14 q 107 -5 119 -14 q 85 14 95 2 q 68 39 75 26 q 62 62 62 52 q 68 85 62 72 q 85 110 75 98 q 107 130 95 122 q 127 139 119 139 q 147 130 135 139 q 169 110 159 122 q 186 85 179 98 q 193 62 193 72 "},"”":{"x_min":39,"x_max":410,"ha":475,"o":"m 195 918 q 185 870 195 898 q 159 811 175 843 q 122 750 143 780 q 77 697 101 720 l 39 702 q 91 784 70 741 q 115 857 111 826 q 99 866 108 859 q 82 881 90 872 q 69 900 75 890 q 64 918 64 909 q 70 942 64 929 q 88 967 77 955 q 109 987 98 979 q 129 995 121 995 q 149 987 137 995 q 170 967 160 979 q 188 942 181 955 q 195 918 195 929 m 410 918 q 400 870 410 898 q 374 811 390 843 q 337 750 358 780 q 294 697 316 720 l 254 702 q 306 784 285 741 q 330 857 327 827 q 314 866 323 859 q 297 881 305 872 q 284 900 290 890 q 279 918 279 909 q 285 942 279 929 q 303 967 292 955 q 324 987 313 979 q 344 995 336 995 q 364 987 352 995 q 385 967 375 979 q 403 942 396 955 q 410 918 410 929 "},"@":{"x_min":58,"x_max":1008.578125,"ha":1067,"o":"m 687 602 q 658 615 678 609 q 616 622 639 622 q 532 603 573 622 q 457 550 490 584 q 405 469 425 516 q 385 367 385 423 q 412 285 385 315 q 483 255 440 255 q 594 311 543 255 q 666 485 644 367 l 687 602 m 1008 534 q 990 418 1008 479 q 938 305 972 356 q 855 220 904 254 q 744 187 805 187 q 677 214 703 187 q 653 294 651 241 q 579 216 628 245 q 464 187 530 187 q 405 199 433 187 q 354 234 376 211 q 319 290 332 256 q 306 366 306 323 q 334 499 306 440 q 407 602 362 559 q 509 668 453 645 q 622 691 566 691 q 713 675 675 691 q 772 639 751 659 l 722 350 q 718 313 718 328 q 728 270 718 284 q 754 257 738 257 q 812 279 780 257 q 871 338 844 300 q 917 426 898 375 q 936 535 936 477 q 913 652 936 597 q 847 748 890 707 q 744 812 805 788 q 608 836 683 836 q 425 799 512 836 q 274 699 338 763 q 171 549 209 635 q 133 365 133 463 q 157 230 133 288 q 223 133 181 172 q 320 74 265 94 q 440 54 376 54 q 595 98 533 54 l 573 17 q 515 -4 552 4 q 428 -14 479 -14 q 280 13 348 -14 q 162 89 212 40 q 85 208 113 138 q 58 365 58 279 q 101 576 58 477 q 221 747 145 675 q 398 861 297 819 q 614 903 500 903 q 778 873 705 903 q 903 794 851 844 q 981 677 954 744 q 1008 534 1008 611 "},"f":{"x_min":23.984375,"x_max":488.015625,"ha":443,"o":"m 469 899 q 424 914 450 908 q 369 920 397 920 q 253 864 294 920 q 213 724 213 808 l 213 629 l 411 629 l 394 557 l 213 557 l 213 0 l 124 0 l 124 557 l 23 557 l 23 629 l 124 629 l 124 700 q 192 920 124 846 q 383 995 260 995 q 440 989 413 995 q 488 974 467 983 l 469 899 "},";":{"x_min":38,"x_max":194,"ha":260,"o":"m 194 62 q 184 14 194 43 q 158 -45 174 -13 q 121 -106 142 -76 q 76 -159 100 -136 l 38 -154 q 90 -72 69 -115 q 114 0 110 -30 q 81 24 99 4 q 63 62 63 44 q 69 85 63 72 q 87 110 76 98 q 108 130 97 122 q 128 138 120 138 q 148 130 136 138 q 169 111 159 122 q 187 86 180 100 q 194 62 194 73 m 193 566 q 186 543 193 556 q 169 518 179 530 q 147 498 159 506 q 127 490 135 490 q 107 498 119 490 q 85 518 95 506 q 68 543 75 530 q 62 566 62 556 q 68 589 62 576 q 85 614 75 602 q 107 634 95 626 q 127 643 119 643 q 147 634 135 643 q 169 614 159 626 q 186 589 179 602 q 193 566 193 576 "},"“":{"x_min":65,"x_max":436,"ha":475,"o":"m 220 983 q 168 901 189 944 q 144 828 147 859 q 177 804 158 824 q 196 766 196 784 q 189 743 196 756 q 171 718 182 730 q 150 698 161 706 q 130 689 138 689 q 110 698 122 689 q 89 717 99 706 q 71 742 78 728 q 65 766 65 756 q 74 814 65 785 q 100 873 84 842 q 137 935 116 905 q 180 988 158 964 l 220 983 m 436 983 q 383 901 404 944 q 359 828 362 859 q 375 820 366 827 q 392 804 384 813 q 405 785 399 795 q 411 767 411 776 q 404 744 411 758 q 386 718 397 730 q 365 698 376 706 q 345 689 353 689 q 325 698 337 689 q 304 718 314 706 q 286 743 293 730 q 280 767 280 756 q 289 814 280 787 q 315 874 299 842 q 352 935 331 905 q 395 990 373 966 l 436 983 "},"i":{"x_min":101.390625,"x_max":219.46875,"ha":319,"o":"m 115 0 l 115 629 l 204 629 l 204 0 l 115 0 m 219 817 q 213 798 219 809 q 197 776 206 787 q 177 758 187 766 q 159 751 168 751 q 141 758 151 751 q 122 776 131 766 q 107 798 113 787 q 101 817 101 809 q 107 837 101 826 q 122 860 113 849 q 141 878 131 870 q 159 886 151 886 q 177 878 168 886 q 197 860 187 870 q 213 837 206 849 q 219 817 219 826 "},"6":{"x_min":58,"x_max":629,"ha":685,"o":"m 540 263 q 525 345 540 308 q 485 410 510 383 q 423 452 459 437 q 343 468 386 468 q 220 431 272 468 q 149 320 168 395 q 148 300 148 313 q 148 277 148 286 q 163 192 148 231 q 207 124 179 152 q 271 79 234 95 q 348 64 307 64 q 423 78 388 64 q 485 120 459 93 q 525 184 510 147 q 540 263 540 220 m 629 265 q 608 154 629 205 q 549 65 587 102 q 460 6 512 27 q 346 -14 409 -14 q 235 6 288 -14 q 143 65 183 26 q 80 163 103 105 q 58 294 58 220 q 88 472 58 383 q 173 643 119 562 q 301 791 227 723 q 463 906 376 859 l 552 868 q 428 791 487 834 q 322 697 370 748 q 238 588 274 645 q 178 469 202 530 q 242 521 198 497 q 349 546 287 546 q 463 525 412 546 q 551 466 515 504 q 608 377 588 429 q 629 265 629 326 "},"A":{"x_min":36.109375,"x_max":798.671875,"ha":835,"o":"m 465 597 q 441 662 452 627 q 418 733 429 697 l 415 733 q 391 662 404 697 q 366 597 379 627 l 259 325 l 570 325 l 465 597 m 704 0 l 602 249 l 227 249 l 127 0 l 36 0 l 402 904 l 431 904 l 798 0 l 704 0 "},"‘":{"x_min":65,"x_max":221,"ha":260,"o":"m 221 983 q 168 900 189 943 q 144 829 147 858 q 177 804 158 825 q 196 766 196 784 q 189 743 196 757 q 171 718 182 730 q 150 698 161 707 q 130 690 138 690 q 110 698 122 690 q 89 718 99 707 q 71 743 78 729 q 65 766 65 757 q 74 814 65 786 q 100 874 84 843 q 137 935 116 905 q 180 989 158 965 l 221 983 "},"n":{"x_min":82,"x_max":610,"ha":692,"o":"m 522 0 l 522 415 q 477 524 522 482 q 348 567 433 567 q 218 524 267 567 q 170 415 170 482 l 170 0 l 82 0 l 82 629 l 162 629 l 164 552 q 237 615 189 588 q 369 643 286 643 q 464 627 421 643 q 541 584 508 612 q 591 515 573 556 q 610 423 610 474 l 610 0 l 522 0 "},"O":{"x_min":58.34375,"x_max":986.1875,"ha":1045,"o":"m 891 444 q 861 599 891 530 q 779 717 830 668 q 661 792 727 765 q 522 820 594 820 q 382 792 450 820 q 264 717 315 765 q 183 599 213 668 q 152 444 152 530 q 183 289 152 359 q 264 170 213 219 q 382 94 315 121 q 522 67 450 67 q 661 94 594 67 q 779 170 727 121 q 861 289 830 219 q 891 444 891 359 m 986 444 q 947 255 986 340 q 845 110 909 170 q 697 17 782 50 q 522 -15 613 -15 q 346 17 430 -15 q 198 110 262 50 q 96 255 134 170 q 58 444 58 340 q 96 631 58 547 q 198 775 134 715 q 346 868 262 835 q 522 901 430 901 q 697 868 613 901 q 845 775 782 835 q 947 631 909 715 q 986 444 986 547 "},"3":{"x_min":34.34375,"x_max":522,"ha":581,"o":"m 522 263 q 501 151 522 202 q 442 63 481 99 q 344 6 402 26 q 210 -14 285 -14 q 129 -4 167 -14 q 60 19 91 4 l 34 113 q 119 76 74 88 q 206 64 163 64 q 294 77 253 64 q 366 117 335 90 q 414 184 396 144 q 433 275 433 223 q 417 346 433 312 q 373 407 401 380 q 311 448 346 433 q 237 463 276 463 q 217 463 227 463 q 196 462 206 463 l 176 536 q 310 595 257 551 q 363 693 363 638 q 325 786 363 748 q 217 825 287 825 q 71 781 139 825 l 53 856 q 129 889 88 877 q 220 901 170 901 q 314 885 271 901 q 387 844 356 870 q 434 780 417 817 q 451 701 451 744 q 439 639 451 669 q 410 586 428 610 q 368 545 392 562 q 317 520 344 528 q 392 493 355 513 q 458 440 428 473 q 504 362 487 406 q 522 263 522 317 "},"]":{"x_min":50.484375,"x_max":324,"ha":410,"o":"m 50 -303 l 50 -228 l 238 -228 l 238 897 l 50 897 l 50 972 l 324 972 l 324 -303 l 50 -303 "},"m":{"x_min":82,"x_max":979,"ha":1061,"o":"m 891 0 l 891 441 q 850 534 891 501 q 735 567 809 567 q 619 533 663 567 q 575 441 575 500 l 575 0 l 487 0 l 487 441 q 445 534 487 501 q 330 567 403 567 q 214 533 258 567 q 170 441 170 500 l 170 0 l 82 0 l 82 629 l 162 629 l 164 559 q 233 618 189 594 q 357 643 278 643 q 469 615 419 643 q 542 544 519 588 q 619 613 566 584 q 760 643 673 643 q 847 629 808 643 q 916 589 887 615 q 962 528 945 563 q 979 448 979 493 l 979 0 l 891 0 "},"9":{"x_min":56,"x_max":627,"ha":685,"o":"m 538 609 q 522 694 538 655 q 478 762 506 734 q 413 807 450 791 q 336 823 376 823 q 260 808 296 823 q 199 766 225 793 q 159 703 174 739 q 145 623 145 667 q 159 541 145 578 q 200 476 174 503 q 262 434 226 449 q 340 419 297 419 q 463 455 411 419 q 535 566 515 491 q 537 586 536 573 q 538 609 538 600 m 627 594 q 596 416 627 505 q 511 245 565 326 q 383 96 457 164 q 222 -19 310 28 l 133 19 q 362 191 264 86 q 507 417 460 295 q 442 366 488 389 q 335 343 397 343 q 222 363 274 343 q 134 422 171 384 q 76 510 97 459 q 56 623 56 562 q 76 733 56 683 q 135 821 97 784 q 224 880 172 859 q 338 901 276 901 q 449 880 396 901 q 541 821 501 860 q 604 724 581 781 q 627 594 627 667 "},"l":{"x_min":115,"x_max":283.5625,"ha":351,"o":"m 223 -21 q 186 -4 205 -15 q 151 25 166 6 q 125 72 135 44 q 115 137 115 99 l 115 989 l 203 989 l 203 147 q 227 74 203 102 q 283 38 251 45 l 223 -21 "},"8":{"x_min":58.359375,"x_max":634,"ha":692,"o":"m 545 243 q 527 313 545 281 q 481 369 510 344 q 416 413 453 394 q 339 442 379 432 q 264 413 300 431 q 201 369 228 394 q 158 313 174 344 q 142 243 142 281 q 158 169 142 203 q 203 113 175 136 q 267 76 231 89 q 343 63 304 63 q 419 76 383 63 q 483 113 456 89 q 528 169 511 136 q 545 243 545 203 m 508 684 q 496 741 508 716 q 461 786 483 767 q 409 815 439 805 q 346 826 379 826 q 283 815 312 826 q 232 786 254 805 q 198 741 211 767 q 185 684 185 716 q 229 586 185 628 q 350 523 273 544 q 466 587 425 546 q 508 684 508 628 m 634 240 q 611 133 634 180 q 548 53 588 86 q 456 2 508 19 q 346 -15 404 -15 q 234 2 287 -15 q 143 53 181 19 q 81 133 104 86 q 58 240 58 180 q 76 330 58 290 q 122 402 94 370 q 184 454 151 433 q 248 484 218 474 q 192 514 219 495 q 144 558 165 533 q 110 616 123 584 q 97 685 97 648 q 116 772 97 733 q 170 840 135 812 q 249 885 204 869 q 346 901 294 901 q 442 885 397 901 q 521 842 487 870 q 573 774 554 813 q 593 685 593 734 q 580 617 593 648 q 546 560 567 585 q 498 515 525 534 q 442 486 471 497 q 508 455 474 476 q 570 403 542 434 q 615 331 597 372 q 634 240 634 290 "},"p":{"x_min":92,"x_max":684,"ha":735,"o":"m 595 315 q 576 416 595 370 q 524 495 557 462 q 448 546 492 528 q 353 565 404 565 q 254 546 299 565 q 180 497 210 528 l 180 130 q 254 83 207 102 q 353 64 300 64 q 448 82 404 64 q 524 134 492 101 q 576 213 557 168 q 595 315 595 259 m 684 315 q 659 182 684 242 q 589 78 634 122 q 484 10 545 34 q 353 -14 424 -14 q 254 1 300 -14 q 180 37 207 16 l 180 -320 l 92 -320 l 92 628 l 170 628 l 171 576 q 254 626 204 609 q 367 643 304 643 q 482 620 425 643 q 584 556 539 598 q 656 453 628 513 q 684 315 684 392 "},"4":{"x_min":14.578125,"x_max":615.125,"ha":665,"o":"m 415 733 q 365 660 391 695 q 314 593 338 624 l 108 320 l 416 320 l 416 593 q 416 661 416 627 q 417 731 416 695 l 415 733 m 504 248 l 504 0 l 416 0 l 416 248 l 31 248 l 14 319 l 443 886 l 504 886 l 504 320 l 615 320 l 615 248 l 504 248 "},"‡":{"x_min":15.28125,"x_max":452.8125,"ha":469,"o":"m 263 -163 l 261 -313 l 206 -313 l 204 -163 l 15 -181 l 15 -93 l 202 -111 l 193 566 l 15 548 l 15 637 l 191 619 l 188 773 l 280 773 l 277 619 l 452 637 l 452 548 l 276 566 l 265 -111 l 452 -93 l 452 -181 l 263 -163 "},"R":{"x_min":96,"x_max":745.984375,"ha":732,"o":"m 514 645 q 499 712 514 682 q 460 762 484 742 q 403 793 436 782 q 333 805 370 805 l 189 805 l 189 486 l 339 486 q 405 496 373 486 q 461 527 437 506 q 499 578 484 548 q 514 645 514 608 m 637 0 l 341 405 l 189 405 l 189 0 l 96 0 l 96 886 l 348 886 q 445 870 398 886 q 529 822 493 854 q 586 747 565 791 q 608 645 608 702 q 559 498 608 557 q 434 418 509 439 l 745 0 l 637 0 "},"o":{"x_min":51,"x_max":714,"ha":765,"o":"m 625 313 q 606 415 625 369 q 554 494 587 460 q 477 546 520 527 q 383 565 433 565 q 287 546 331 565 q 210 494 242 527 q 158 415 177 460 q 140 313 140 369 q 158 212 140 258 q 210 133 177 166 q 287 82 242 100 q 383 64 331 64 q 477 82 433 64 q 554 133 520 100 q 606 212 587 166 q 625 313 625 258 m 714 313 q 688 181 714 241 q 619 78 663 122 q 514 10 575 34 q 383 -14 454 -14 q 251 10 312 -14 q 146 78 191 34 q 76 181 102 122 q 51 313 51 241 q 76 446 51 386 q 146 550 102 506 q 251 618 191 594 q 383 643 312 643 q 514 618 454 643 q 619 550 575 594 q 688 446 663 506 q 714 313 714 386 "},"5":{"x_min":69.578125,"x_max":560,"ha":618,"o":"m 560 265 q 539 157 560 208 q 481 68 519 106 q 387 8 443 30 q 261 -14 332 -14 q 166 -2 211 -14 q 94 23 120 8 l 69 116 q 161 76 114 88 q 257 64 208 64 q 340 78 301 64 q 408 118 379 93 q 454 182 437 144 q 471 265 471 219 q 454 349 471 311 q 408 414 437 387 q 341 456 379 441 q 259 471 302 471 q 172 464 211 471 q 101 443 133 457 l 115 886 l 487 886 l 469 810 l 198 810 l 191 539 q 223 546 204 543 q 266 549 243 549 q 381 528 327 549 q 474 471 434 508 q 537 382 514 435 q 560 265 560 330 "}}}
